<?xml version="1.0" encoding="UTF-8"?>
<svg id="Layer_2" data-name="Layer 2" xmlns="http://www.w3.org/2000/svg" viewBox="0 0 446.41 298.52">
  <defs>
    <style>
      .cls-1 {
        fill: #153e35;
      }
    </style>
  </defs>
  <g id="Layer_1-2" data-name="Layer 1">
    <g>
      <polygon class="cls-1" points="394.99 16.87 318.81 136.34 318.56 136.18 318.46 136.34 246.13 136.34 287.17 71.8 278.92 66.55 234.51 136.34 162.2 136.34 202.77 72.31 193.72 66.55 149.31 136.34 76.87 136.34 157.73 9.18 198.99 0 234.43 22.54 242.93 9.18 284.19 0 318.98 22.14 327.23 9.18 368.49 0 394.99 16.87"/>
      <g>
        <path class="cls-1" d="m158.29,298.52v-47.6h7.89v47.6h-7.89Z"/>
        <path class="cls-1" d="m264.03,298.52v-31.28l6.8-6.8h19.99v7.07h-18.9v31.01h-7.89Z"/>
        <path class="cls-1" d="m419.62,298.52v-31.28l6.8-6.8h19.99v7.07h-18.9v31.01h-7.89Z"/>
        <path class="cls-1" d="m0,298.52v-40.8l6.8-6.8h19.99v7.07H7.89v40.53H0Z"/>
        <path class="cls-1" d="m26.79,298.52v-40.8l6.8-6.8h19.99v7.07h-18.9v40.53h-7.89Z"/>
        <path class="cls-1" d="m53.59,298.52v-47.6h7.94l-.05,47.6h-7.89Z"/>
        <path class="cls-1" d="m98.27,260.44h-27.06v6.8h25.98v9.52h-25.98v14.96l6.8,6.8h20.26l6.8-6.8v-24.48l-6.8-6.8Zm-1.09,31.42h-18.09v-9.38h18.09v9.38Z"/>
        <path class="cls-1" d="m141.81,260.44h-27.06v6.8h25.98v9.52h-25.98v14.96l6.8,6.8h20.26l6.8-6.8v-24.48l-6.8-6.8Zm-1.09,31.42h-18.09v-9.38h18.09v9.38Z"/>
        <path class="cls-1" d="m247.55,260.44h-27.06v6.8h25.98v9.52h-25.98v14.96l6.8,6.8h20.26l6.8-6.8v-24.48l-6.8-6.8Zm-1.09,31.42h-18.09v-9.38h18.09v9.38Z"/>
        <path class="cls-1" d="m361.28,260.44h-27.06v6.8h25.98v9.52h-25.98v14.96l6.8,6.8h20.26l6.8-6.8v-24.48l-6.8-6.8Zm-1.09,31.42h-18.09v-9.38h18.09v9.38Z"/>
        <path class="cls-1" d="m403.98,260.44h-27.06v6.8h25.98v9.52h-25.98v14.96l6.8,6.8h20.26l6.8-6.8v-24.48l-6.8-6.8Zm-1.09,31.42h-18.09v-9.38h18.09v9.38Z"/>
        <path class="cls-1" d="m203.87,260.44h-20.13v-9.52h-7.89v40.8l6.8,6.8h21.22l6.94-6.94v-24.21l-6.94-6.94Zm-.95,31.28h-19.18v-24.48h19.18v24.48Z"/>
        <path class="cls-1" d="m297.37,260.44h20.13v-9.52h7.89v40.8l-6.8,6.8h-21.22l-6.94-6.94v-24.21l6.94-6.94Zm.95,31.28h19.18v-24.48h-19.18v24.48Z"/>
      </g>
      <g>
        <path class="cls-1" d="m22.34,194.15h-.54l-7.23.86c.32,2.41.61,4.95.86,7.61.25,2.66.38,5.5.38,8.52,0,2.66-.13,4.99-.41,6.99-.27,2-.63,3.7-1.08,5.13-.28.88-.6,1.67-.96,2.38-.6.23-1.26.43-1.98.61-1.29.32-2.66.49-4.1.49-.97,0-1.92-.07-2.83-.22-.92-.14-1.79-.32-2.62-.54l-1.83,5.99v.54c1.29.18,2.43.32,3.4.43.97.11,1.92.16,2.86.16,2.77,0,5.21-.42,7.34-1.27,2.12-.85,3.9-2.18,5.34-3.99,1.44-1.82,2.54-4.14,3.29-6.96.76-2.82,1.13-6.23,1.13-10.22,0-3.16-.09-6.11-.27-8.82-.18-2.72-.43-5.28-.75-7.69Z"/>
        <path class="cls-1" d="m32.21,178.88v40.19h7.55v-32.59c0-.72,0-1.58.03-2.59.02-1.01.05-2,.11-2.97.05-.97.15-1.78.3-2.43l-.05-.43-7.93.81Z"/>
        <path class="cls-1" d="m78.88,199c-.94-1.33-1.87-2.45-2.81-3.34h-.65c-1.08.25-2.4.42-3.97.51-1.56.09-3.14.13-4.72.13h-1.73c-1.8,0-3.69-.09-5.66-.27-1.98-.18-3.76-.54-5.34-1.08h-.54l-1.78,5.99c1.29.47,2.62.83,3.99,1.08,1.37.25,2.75.42,4.15.51s2.72.13,3.94.13h2c1.19,0,2.21-.03,3.07-.08.86-.05,1.76-.15,2.7-.3.28-.04.58-.09.89-.15.6.73,1.1,1.53,1.51,2.41.59,1.29.89,2.55.89,3.78,0,.9-.21,1.66-.62,2.29-.41.63-1.02,1.11-1.83,1.43-.81.32-1.84.49-3.1.49h-20.39l-2.32,5.99v.54h22.93c2.3,0,4.26-.28,5.88-.84,1.62-.56,2.93-1.33,3.94-2.32,1.01-.99,1.74-2.13,2.21-3.43.47-1.29.7-2.7.7-4.21,0-1.69-.32-3.33-.97-4.91-.65-1.58-1.44-3.04-2.37-4.37Z"/>
        <path class="cls-1" d="m229.58,211.95c-.02-1.01-.03-1.87-.03-2.59v-18.45h-.49l-7.07.86v16.35c0,1.33.08,2.5.24,3.51.05.34.12.64.19.92h-78.01s0,0,0,0h-38.34c.02-.62.03-1.24.03-1.89,0-3.16-.09-6.11-.27-8.82-.18-2.72-.43-5.28-.75-7.69h-.54l-7.23.86c.32,2.41.61,4.95.86,7.61.25,2.66.38,5.5.38,8.52,0,2.66-.13,4.99-.41,6.99-.27,2-.63,3.7-1.08,5.13-.28.88-.6,1.67-.96,2.38-.6.23-1.26.43-1.98.61-1.29.32-2.66.49-4.1.49-.97,0-1.92-.07-2.83-.22-.92-.14-1.79-.32-2.62-.54l-1.83,5.99v.54c1.29.18,2.43.32,3.4.43.97.11,1.92.16,2.86.16,2.77,0,5.21-.42,7.34-1.27,2.12-.85,3.9-2.18,5.34-3.99,1.44-1.82,2.54-4.14,3.29-6.96.15-.58.29-1.18.41-1.81h114.83c2.27,0,4.19-.11,5.77-.32s2.91-.54,3.99-.97v-.43c-.14-.65-.24-1.46-.3-2.43-.05-.97-.09-1.96-.11-2.97Z"/>
        <path class="cls-1" d="m224.92,224.14c-1.04,0-1.93.32-2.64.97s-1.08,1.55-1.08,2.7.36,2.05,1.08,2.7c.72.65,1.58.97,2.59.97,1.08,0,1.97-.32,2.67-.97.7-.65,1.05-1.55,1.05-2.7s-.36-2.05-1.08-2.7c-.72-.65-1.58-.97-2.59-.97Z"/>
        <path class="cls-1" d="m265.22,178.88v35.61c0,1.73-.1,3.42-.3,5.07-.2,1.65-.47,3.14-.81,4.45-.14.52-.29.99-.44,1.42-.36.2-.7.37-1.02.49-.74.29-1.61.43-2.62.43-1.8,0-3.73-.47-5.8-1.4-2.07-.94-4-2.61-5.8-5.02h-.49l-2.53,6.37c.47.65,1.09,1.35,1.86,2.1.77.76,1.67,1.48,2.7,2.19,1.02.7,2.17,1.28,3.43,1.73,1.26.45,2.63.67,4.1.67,2.84,0,5.41-.71,7.71-2.13,2.3-1.42,4.14-3.58,5.5-6.47,1.37-2.9,2.05-6.59,2.05-11.09v-35.23h-.54l-7.01.81Z"/>
        <path class="cls-1" d="m440.91,199.3c-1.35-2.14-3.24-3.81-5.66-5.02-2.43-1.2-5.21-1.81-8.34-1.81-1.37,0-2.76.12-4.18.35-1.42.23-2.76.55-4.02.94l-.75.7c-.32,4.07-.8,7.43-1.43,10.09-.63,2.66-1.53,4.66-2.7,5.99-1.17,1.33-2.76,2-4.77,2h0s0,0,0,0h-81.57s0,0,0,0h-38.03v-26.06c0-.72,0-1.58.03-2.59.02-1.01.05-2,.11-2.97.05-.97.15-1.78.3-2.43l-.05-.43-7.93.81v40.19h126.08c3.2,0,5.84-.53,7.9-1.59.61-.31,1.16-.67,1.7-1.06.45.37.9.72,1.35,1.03,1.58,1.08,3.21,1.84,4.88,2.29,1.67.45,3.41.67,5.21.67,2.73,0,5.15-.59,7.26-1.78,2.1-1.19,3.74-2.82,4.91-4.91,1.17-2.09,1.75-4.42,1.75-7.01,0-2.81-.67-5.28-2.02-7.42Zm-6.34,12.84c-.33.72-.74,1.4-1.2,2.06-.23,0-.48-.02-.74-.03-1.51,0-3.01-.22-4.51-.65s-2.94-1.03-4.34-1.81c-.61-.34-1.2-.71-1.78-1.11.59-1.38,1.07-2.87,1.41-4.53.44-2.18.77-4.55,1-7.07,2.01,0,3.82.27,5.4.84,1.85.67,3.29,1.64,4.32,2.91,1.02,1.28,1.54,2.8,1.54,4.56,0,1.65-.36,3.26-1.08,4.83Z"/>
      </g>
    </g>
  </g>
</svg>